Thana shagna da: 
punjabi funny movie


Format                                   : MPEG-4
Format profile                           : Base Media / Version 2
Codec ID                                 : mp42
File size                                : 286 MiB
Duration                                 : 44mn 5s
Overall bit rate mode                    : Variable
Overall bit rate                         : 907 Kbps

Video
ID                                       : 1
Format                                   : AVC
Format/Info                              : Advanced Video Codec
Format profile                           : Main@L2.0
Format settings, CABAC                   : Yes
Format settings, ReFrames                : 4 frames
Codec ID                                 : avc1
Codec ID/Info                            : Advanced Video Coding
Duration                                 : 44mn 5s
Bit rate mode                            : Variable
Bit rate                                 : 800 Kbps
Width                                    : 350 pixels
Height                                   : 286 pixels
Display aspect ratio                     : 4:3
Original display aspect ratio            : 4:3
Frame rate mode                          : Variable
Frame rate                               : 23.976 fps
Minimum frame rate                       : 1.563 fps
Maximum frame rate                       : 25.000 fps
Color space                              : YUV
Chroma subsampling                       : 4:2:0
Bit depth                                : 8 bits
Scan type                                : Progressive
Bits/(Pixel*Frame)                       : 0.333
Stream size                              : 253 MiB (89%)
Writing library                          : x264 core 120


Audio
ID                                       : 2
Format                                   : AAC
Format/Info                              : Advanced Audio Codec
Format profile                           : LC
Codec ID                                 : 40
Duration                                 : 44mn 5s
Bit rate mode                            : Variable
Bit rate                                 : 98.7 Kbps
Maximum bit rate                         : 113 Kbps
Channel(s)                               : 2 channels
Channel positions                        : Front: L R
Sampling rate                            : 44.1 KHz
Compression mode                         : Lossy
Stream size                              : 31.1 MiB (11%)
Encoded date                             : UTC 2012-05-26 20:23:38
Tagged date                              : UTC 2012-05-26 20:27:36 
http://i.minus.com/ib8eQ60VI55Ff.png 
http://i.minus.com/iJd5Bes2iAZOs.png 
http://i.minus.com/iNfEq7FDwAxOl.png 
http://i.minus.com/ib51a2AQSeYyp.png 
http://i.minus.com/ibeu3huyrXsxS8.png 
http://i.minus.com/i45RhaiYUIZJN.png

Use vlc player 